<mxfile host="app.diagrams.net" modified="2024-04-05T07:00:57.643Z" agent="Mozilla/5.0 (Windows NT 10.0; Win64; x64) AppleWebKit/537.36 (KHTML, like Gecko) Chrome/123.0.0.0 Safari/537.36" etag="YxXycycKdK2rAmVkwOEe" version="24.2.2" type="github">
  <diagram name="Page-1" id="2YBvvXClWsGukQMizWep">
    <mxGraphModel dx="1728" dy="950" grid="1" gridSize="10" guides="1" tooltips="1" connect="1" arrows="1" fold="1" page="1" pageScale="1" pageWidth="850" pageHeight="1100" math="0" shadow="0">
      <root>
        <mxCell id="0" />
        <mxCell id="1" parent="0" />
        <mxCell id="aM9ryv3xv72pqoxQDRHE-1" value=":Validation" style="shape=umlLifeline;perimeter=lifelinePerimeter;whiteSpace=wrap;html=1;container=0;dropTarget=0;collapsible=0;recursiveResize=0;outlineConnect=0;portConstraint=eastwest;newEdgeStyle={&quot;edgeStyle&quot;:&quot;elbowEdgeStyle&quot;,&quot;elbow&quot;:&quot;vertical&quot;,&quot;curved&quot;:0,&quot;rounded&quot;:0};" parent="1" vertex="1">
          <mxGeometry x="161" y="70" width="100" height="460" as="geometry" />
        </mxCell>
        <mxCell id="aM9ryv3xv72pqoxQDRHE-3" value="validation()" style="html=1;verticalAlign=bottom;startArrow=oval;endArrow=block;startSize=8;edgeStyle=elbowEdgeStyle;elbow=vertical;curved=0;rounded=0;" parent="aM9ryv3xv72pqoxQDRHE-1" target="aM9ryv3xv72pqoxQDRHE-2" edge="1">
          <mxGeometry relative="1" as="geometry">
            <mxPoint x="-121" y="79" as="sourcePoint" />
            <mxPoint x="49.5" y="79" as="targetPoint" />
          </mxGeometry>
        </mxCell>
        <mxCell id="aM9ryv3xv72pqoxQDRHE-2" value="" style="html=1;points=[];perimeter=orthogonalPerimeter;outlineConnect=0;targetShapes=umlLifeline;portConstraint=eastwest;newEdgeStyle={&quot;edgeStyle&quot;:&quot;elbowEdgeStyle&quot;,&quot;elbow&quot;:&quot;vertical&quot;,&quot;curved&quot;:0,&quot;rounded&quot;:0};" parent="aM9ryv3xv72pqoxQDRHE-1" vertex="1">
          <mxGeometry x="45" y="70" width="10" height="210" as="geometry" />
        </mxCell>
        <mxCell id="aM9ryv3xv72pqoxQDRHE-5" value=":WaitQueue" style="shape=umlLifeline;perimeter=lifelinePerimeter;whiteSpace=wrap;html=1;container=0;dropTarget=0;collapsible=0;recursiveResize=0;outlineConnect=0;portConstraint=eastwest;newEdgeStyle={&quot;edgeStyle&quot;:&quot;elbowEdgeStyle&quot;,&quot;elbow&quot;:&quot;vertical&quot;,&quot;curved&quot;:0,&quot;rounded&quot;:0};" parent="1" vertex="1">
          <mxGeometry x="341" y="70" width="100" height="460" as="geometry" />
        </mxCell>
        <mxCell id="aM9ryv3xv72pqoxQDRHE-6" value="" style="html=1;points=[];perimeter=orthogonalPerimeter;outlineConnect=0;targetShapes=umlLifeline;portConstraint=eastwest;newEdgeStyle={&quot;edgeStyle&quot;:&quot;elbowEdgeStyle&quot;,&quot;elbow&quot;:&quot;vertical&quot;,&quot;curved&quot;:0,&quot;rounded&quot;:0};" parent="aM9ryv3xv72pqoxQDRHE-5" vertex="1">
          <mxGeometry x="45" y="70" width="10" height="120" as="geometry" />
        </mxCell>
        <mxCell id="1ZJD2HV8ZHbzc8r6UvwX-33" value="" style="html=1;points=[];perimeter=orthogonalPerimeter;outlineConnect=0;targetShapes=umlLifeline;portConstraint=eastwest;newEdgeStyle={&quot;edgeStyle&quot;:&quot;elbowEdgeStyle&quot;,&quot;elbow&quot;:&quot;vertical&quot;,&quot;curved&quot;:0,&quot;rounded&quot;:0};" parent="aM9ryv3xv72pqoxQDRHE-5" vertex="1">
          <mxGeometry x="45" y="310" width="10" height="50" as="geometry" />
        </mxCell>
        <mxCell id="XITLdkzuaWW9dAgO7Yf1-1" value="User" style="shape=umlActor;verticalLabelPosition=bottom;verticalAlign=top;html=1;outlineConnect=0;" parent="1" vertex="1">
          <mxGeometry x="29" y="28" width="30" height="60" as="geometry" />
        </mxCell>
        <mxCell id="XITLdkzuaWW9dAgO7Yf1-2" value=":Concert" style="shape=umlLifeline;perimeter=lifelinePerimeter;whiteSpace=wrap;html=1;container=0;dropTarget=0;collapsible=0;recursiveResize=0;outlineConnect=0;portConstraint=eastwest;newEdgeStyle={&quot;edgeStyle&quot;:&quot;elbowEdgeStyle&quot;,&quot;elbow&quot;:&quot;vertical&quot;,&quot;curved&quot;:0,&quot;rounded&quot;:0};" parent="1" vertex="1">
          <mxGeometry x="519" y="70" width="100" height="460" as="geometry" />
        </mxCell>
        <mxCell id="XITLdkzuaWW9dAgO7Yf1-10" value="" style="endArrow=none;dashed=1;html=1;rounded=0;" parent="1" edge="1">
          <mxGeometry width="50" height="50" relative="1" as="geometry">
            <mxPoint x="41" y="530" as="sourcePoint" />
            <mxPoint x="40.5" y="110" as="targetPoint" />
          </mxGeometry>
        </mxCell>
        <mxCell id="1ZJD2HV8ZHbzc8r6UvwX-2" value="alt" style="shape=umlFrame;whiteSpace=wrap;html=1;pointerEvents=0;width=39;height=20;" parent="1" vertex="1">
          <mxGeometry x="80" y="158" width="540" height="292" as="geometry" />
        </mxCell>
        <mxCell id="1ZJD2HV8ZHbzc8r6UvwX-10" value="&lt;font style=&quot;font-size: 8px;&quot;&gt;[validation fail]&lt;/font&gt;" style="text;html=1;align=center;verticalAlign=middle;whiteSpace=wrap;rounded=0;" parent="1" vertex="1">
          <mxGeometry x="72" y="170" width="89" height="30" as="geometry" />
        </mxCell>
        <mxCell id="1ZJD2HV8ZHbzc8r6UvwX-13" value="isUserInQueue(userId)" style="html=1;verticalAlign=bottom;endArrow=block;edgeStyle=elbowEdgeStyle;elbow=vertical;curved=0;rounded=0;" parent="1" edge="1">
          <mxGeometry x="-0.003" relative="1" as="geometry">
            <mxPoint x="217.5" y="190" as="sourcePoint" />
            <Array as="points" />
            <mxPoint x="386" y="190" as="targetPoint" />
            <mxPoint as="offset" />
          </mxGeometry>
        </mxCell>
        <mxCell id="1ZJD2HV8ZHbzc8r6UvwX-16" value="alt" style="shape=umlFrame;whiteSpace=wrap;html=1;pointerEvents=0;width=39;height=20;" parent="1" vertex="1">
          <mxGeometry x="80" y="450" width="540" height="92" as="geometry" />
        </mxCell>
        <mxCell id="1ZJD2HV8ZHbzc8r6UvwX-17" value="alt" style="shape=umlFrame;whiteSpace=wrap;html=1;pointerEvents=0;width=39;height=20;" parent="1" vertex="1">
          <mxGeometry x="120.5" y="370" width="469.5" height="70" as="geometry" />
        </mxCell>
        <mxCell id="1ZJD2HV8ZHbzc8r6UvwX-19" value="checkWait()" style="html=1;verticalAlign=bottom;endArrow=block;edgeStyle=elbowEdgeStyle;elbow=vertical;curved=0;rounded=0;" parent="1" edge="1">
          <mxGeometry relative="1" as="geometry">
            <mxPoint x="217" y="229.71" as="sourcePoint" />
            <Array as="points" />
            <mxPoint x="385.5" y="229.71" as="targetPoint" />
          </mxGeometry>
        </mxCell>
        <mxCell id="1ZJD2HV8ZHbzc8r6UvwX-20" value="alt" style="shape=umlFrame;whiteSpace=wrap;html=1;pointerEvents=0;width=39;height=20;" parent="1" vertex="1">
          <mxGeometry x="120" y="200" width="470" height="170" as="geometry" />
        </mxCell>
        <mxCell id="1ZJD2HV8ZHbzc8r6UvwX-22" value="&lt;font style=&quot;font-size: 8px;&quot;&gt;[exists in queue]&lt;/font&gt;" style="text;html=1;align=center;verticalAlign=middle;whiteSpace=wrap;rounded=0;" parent="1" vertex="1">
          <mxGeometry x="120" y="215" width="79" height="30" as="geometry" />
        </mxCell>
        <mxCell id="1ZJD2HV8ZHbzc8r6UvwX-24" value="" style="html=1;points=[[0,0,0,0,5],[0,1,0,0,-5],[1,0,0,0,5],[1,1,0,0,-5]];perimeter=orthogonalPerimeter;outlineConnect=0;targetShapes=umlLifeline;portConstraint=eastwest;newEdgeStyle={&quot;curved&quot;:0,&quot;rounded&quot;:0};" parent="1" vertex="1">
          <mxGeometry x="212" y="303" width="10" height="40" as="geometry" />
        </mxCell>
        <mxCell id="1ZJD2HV8ZHbzc8r6UvwX-25" value="issueToken(userId)" style="html=1;align=left;spacingLeft=2;endArrow=block;rounded=0;edgeStyle=orthogonalEdgeStyle;curved=0;rounded=0;" parent="1" target="1ZJD2HV8ZHbzc8r6UvwX-24" edge="1">
          <mxGeometry relative="1" as="geometry">
            <mxPoint x="216" y="300" as="sourcePoint" />
            <Array as="points">
              <mxPoint x="240" y="300" />
              <mxPoint x="240" y="330" />
            </Array>
          </mxGeometry>
        </mxCell>
        <mxCell id="1ZJD2HV8ZHbzc8r6UvwX-29" value="alt" style="shape=umlFrame;whiteSpace=wrap;html=1;pointerEvents=0;width=39;height=20;" parent="1" vertex="1">
          <mxGeometry x="140" y="245" width="420" height="115" as="geometry" />
        </mxCell>
        <mxCell id="1ZJD2HV8ZHbzc8r6UvwX-30" value="&lt;font style=&quot;font-size: 8px;&quot;&gt;[no need wait]&lt;/font&gt;" style="text;html=1;align=center;verticalAlign=middle;whiteSpace=wrap;rounded=0;" parent="1" vertex="1">
          <mxGeometry x="133" y="260" width="79" height="30" as="geometry" />
        </mxCell>
        <mxCell id="1ZJD2HV8ZHbzc8r6UvwX-31" value="&lt;font style=&quot;font-size: 8px;&quot;&gt;[exists in queue]&lt;/font&gt;" style="text;html=1;align=center;verticalAlign=middle;whiteSpace=wrap;rounded=0;" parent="1" vertex="1">
          <mxGeometry x="120.5" y="390" width="79" height="30" as="geometry" />
        </mxCell>
        <mxCell id="1ZJD2HV8ZHbzc8r6UvwX-32" value="" style="html=1;points=[];perimeter=orthogonalPerimeter;outlineConnect=0;targetShapes=umlLifeline;portConstraint=eastwest;newEdgeStyle={&quot;edgeStyle&quot;:&quot;elbowEdgeStyle&quot;,&quot;elbow&quot;:&quot;vertical&quot;,&quot;curved&quot;:0,&quot;rounded&quot;:0};" parent="1" vertex="1">
          <mxGeometry x="206" y="380" width="10" height="50" as="geometry" />
        </mxCell>
        <mxCell id="1ZJD2HV8ZHbzc8r6UvwX-34" value="addWaitQueue(userId)" style="html=1;verticalAlign=bottom;endArrow=block;edgeStyle=elbowEdgeStyle;elbow=vertical;curved=0;rounded=0;" parent="1" edge="1">
          <mxGeometry x="-0.003" relative="1" as="geometry">
            <mxPoint x="216" y="400.14" as="sourcePoint" />
            <Array as="points" />
            <mxPoint x="384.5" y="400.14" as="targetPoint" />
            <mxPoint as="offset" />
          </mxGeometry>
        </mxCell>
        <mxCell id="1ZJD2HV8ZHbzc8r6UvwX-35" value="" style="html=1;points=[];perimeter=orthogonalPerimeter;outlineConnect=0;targetShapes=umlLifeline;portConstraint=eastwest;newEdgeStyle={&quot;edgeStyle&quot;:&quot;elbowEdgeStyle&quot;,&quot;elbow&quot;:&quot;vertical&quot;,&quot;curved&quot;:0,&quot;rounded&quot;:0};" parent="1" vertex="1">
          <mxGeometry x="206" y="460" width="10" height="60" as="geometry" />
        </mxCell>
        <mxCell id="1ZJD2HV8ZHbzc8r6UvwX-36" value="access()" style="html=1;verticalAlign=bottom;endArrow=block;edgeStyle=elbowEdgeStyle;elbow=vertical;curved=0;rounded=0;" parent="1" target="1ZJD2HV8ZHbzc8r6UvwX-8" edge="1">
          <mxGeometry x="-0.003" relative="1" as="geometry">
            <mxPoint x="216" y="470.14" as="sourcePoint" />
            <Array as="points" />
            <mxPoint x="384.5" y="470.14" as="targetPoint" />
            <mxPoint as="offset" />
          </mxGeometry>
        </mxCell>
        <mxCell id="1ZJD2HV8ZHbzc8r6UvwX-37" value="&lt;font style=&quot;font-size: 8px;&quot;&gt;[validation success]&lt;/font&gt;" style="text;html=1;align=center;verticalAlign=middle;whiteSpace=wrap;rounded=0;" parent="1" vertex="1">
          <mxGeometry x="80" y="460" width="89" height="30" as="geometry" />
        </mxCell>
        <mxCell id="1ZJD2HV8ZHbzc8r6UvwX-8" value="" style="html=1;points=[];perimeter=orthogonalPerimeter;outlineConnect=0;targetShapes=umlLifeline;portConstraint=eastwest;newEdgeStyle={&quot;edgeStyle&quot;:&quot;elbowEdgeStyle&quot;,&quot;elbow&quot;:&quot;vertical&quot;,&quot;curved&quot;:0,&quot;rounded&quot;:0};" parent="1" vertex="1">
          <mxGeometry x="564" y="460" width="10" height="50" as="geometry" />
        </mxCell>
        <mxCell id="1ZJD2HV8ZHbzc8r6UvwX-38" value="getAllConcert()" style="html=1;verticalAlign=bottom;endArrow=block;edgeStyle=elbowEdgeStyle;elbow=vertical;curved=0;rounded=0;" parent="1" edge="1">
          <mxGeometry x="-0.003" relative="1" as="geometry">
            <mxPoint x="216" y="496" as="sourcePoint" />
            <Array as="points" />
            <mxPoint x="564" y="495.86" as="targetPoint" />
            <mxPoint as="offset" />
          </mxGeometry>
        </mxCell>
      </root>
    </mxGraphModel>
  </diagram>
</mxfile>
